<svg version="1.1" id="Layer_1" xmlns="http://www.w3.org/2000/svg" xmlns:xlink="http://www.w3.org/1999/xlink" x="0px" y="0px"
	 width="100%" viewBox="0 0 480 461" enable-background="new 0 0 480 461" xml:space="preserve">
<path fill="#F8F8F8" opacity="1.000000" stroke="none" 
	d="
M243.000000,462.000000 
	C162.021378,462.000000 81.542763,462.000000 1.032071,462.000000 
	C1.032071,308.395538 1.032071,154.791061 1.032071,1.093292 
	C160.895264,1.093292 320.790619,1.093292 480.842957,1.093292 
	C480.842957,154.666534 480.842957,308.333252 480.842957,462.000000 
	C401.791107,462.000000 322.645538,462.000000 243.000000,462.000000 
M340.219238,322.773804 
	C340.500641,322.186432 340.782074,321.599091 341.287781,320.381866 
	C362.892761,293.249725 372.496277,262.668793 369.216949,227.851212 
	C363.435547,166.467697 312.250305,117.021378 250.851944,114.171669 
	C176.515869,110.721489 115.419678,170.137558 118.013878,243.683746 
	C119.389526,282.683990 135.579865,314.510254 165.934769,339.064240 
	C179.322540,349.893555 194.616104,357.061157 211.057968,362.747284 
	C212.036942,362.841034 213.015915,362.934784 214.739395,363.012756 
	C215.464233,363.160980 216.189072,363.309174 216.972870,363.988983 
	C217.645950,364.006683 218.319046,364.024353 219.798859,364.020050 
	C222.178787,364.442932 224.558716,364.865845 227.145615,366.008911 
	C237.790741,369.372131 248.682907,368.186829 259.419830,367.172638 
	C274.101715,365.785767 288.152008,361.347473 301.658691,355.607147 
	C305.608521,353.928467 308.563782,349.909637 311.997986,347.001801 
	C311.997986,347.001801 311.963379,346.972229 312.756561,347.071320 
	C320.669373,345.309143 325.786346,339.690094 330.770050,333.924316 
	C331.119690,333.519806 330.939240,332.657104 331.000000,332.000000 
	C331.000000,332.000000 331.007538,332.005219 331.762634,332.045227 
	C332.807037,330.657318 333.851471,329.269440 334.993011,327.988770 
	C334.993011,327.988770 334.877808,327.901306 335.636414,327.959747 
	C338.852478,327.595245 339.714996,325.494263 339.632660,322.630981 
	C339.632660,322.630981 339.643677,322.557983 340.219238,322.773804 
z"/>
<path fill="#020202" opacity="1.000000" stroke="none" 
	d="
M226.938629,365.288757 
	C224.558716,364.865845 222.178787,364.442932 219.210861,363.799622 
	C218.053207,363.538574 217.483566,363.497986 216.913910,363.457397 
	C216.189072,363.309174 215.464233,363.160980 214.111115,362.812317 
	C212.644226,362.453430 211.805618,362.294983 210.967026,362.136536 
	C194.616104,357.061157 179.322540,349.893555 165.934769,339.064240 
	C135.579865,314.510254 119.389526,282.683990 118.013878,243.683746 
	C115.419678,170.137558 176.515869,110.721489 250.851944,114.171669 
	C312.250305,117.021378 363.435547,166.467697 369.216949,227.851212 
	C372.496277,262.668793 362.892761,293.249725 340.920105,320.799042 
	C340.249512,321.663452 339.946594,322.110718 339.643677,322.557983 
	C339.643677,322.557983 339.632660,322.630981 339.308746,322.779480 
	C337.615814,324.585724 336.246826,326.243530 334.877808,327.901306 
	C334.877808,327.901306 334.993011,327.988770 334.632935,328.027405 
	C333.184387,329.379120 332.095947,330.692169 331.007538,332.005219 
	C331.007538,332.005219 331.000000,332.000000 330.671692,332.077087 
	C324.216705,337.093506 318.090027,342.032867 311.963379,346.972229 
	C311.963379,346.972229 311.997986,347.001801 311.631836,347.014160 
	C294.422607,357.155579 276.396210,364.084808 256.708221,365.493042 
	C246.840378,366.198853 236.865250,365.404602 226.938629,365.288757 
M184.068100,219.903641 
	C183.693756,220.595306 183.319412,221.286957 182.343353,222.304489 
	C181.867966,223.811020 181.392578,225.317551 180.358231,227.388458 
	C180.185211,246.448730 179.980667,265.508911 179.927155,284.569519 
	C179.924332,285.580231 181.198090,286.594513 181.176422,288.061829 
	C182.683578,293.651611 186.069321,297.466248 192.215302,299.771881 
	C195.640717,300.263885 199.064590,301.169891 202.491791,301.182617 
	C230.623901,301.286957 258.756653,301.239319 286.889160,301.207397 
	C299.526093,301.193054 307.768372,293.615448 308.059570,281.024963 
	C308.425232,265.219086 308.265930,249.400742 308.300812,233.587723 
	C308.329651,220.516174 300.839752,212.757935 287.753540,212.303619 
	C284.982147,212.207413 282.204529,212.289627 278.948273,212.289627 
	C278.948273,206.553955 279.249207,201.241226 278.894562,195.972610 
	C277.577332,176.403091 262.624603,162.340332 243.789169,163.292603 
	C225.166489,164.234131 208.654663,177.504623 209.108612,198.378098 
	C209.205734,202.843719 209.122787,207.313248 209.122787,211.888336 
	C207.572388,212.234787 206.307541,212.517441 204.202789,212.516022 
	C196.668823,212.089828 189.891159,213.756134 184.621902,219.616776 
	C184.621902,219.616776 184.600601,219.619156 184.068100,219.903641 
z"/>
<path fill="#CCCCCC" opacity="1.000000" stroke="none" 
	d="
M227.042114,365.648834 
	C236.865250,365.404602 246.840378,366.198853 256.708221,365.493042 
	C276.396210,364.084808 294.422607,357.155579 311.620300,346.994965 
	C308.563782,349.909637 305.608521,353.928467 301.658691,355.607147 
	C288.152008,361.347473 274.101715,365.785767 259.419830,367.172638 
	C248.682907,368.186829 237.790741,369.372131 227.042114,365.648834 
z"/>
<path fill="#CCCCCC" opacity="1.000000" stroke="none" 
	d="
M312.359985,347.021790 
	C318.090027,342.032867 324.216705,337.093506 330.674316,332.080811 
	C330.939240,332.657104 331.119690,333.519806 330.770050,333.924316 
	C325.786346,339.690094 320.669373,345.309143 312.359985,347.021790 
z"/>
<path fill="#CCCCCC" opacity="1.000000" stroke="none" 
	d="
M335.257141,327.930542 
	C336.246826,326.243530 337.615814,324.585724 339.272278,322.785126 
	C339.714996,325.494263 338.852478,327.595245 335.257141,327.930542 
z"/>
<path fill="#CCCCCC" opacity="1.000000" stroke="none" 
	d="
M331.385071,332.025208 
	C332.095947,330.692169 333.184387,329.379120 334.584351,327.973816 
	C333.851471,329.269440 332.807037,330.657318 331.385071,332.025208 
z"/>
<path fill="#CCCCCC" opacity="1.000000" stroke="none" 
	d="
M211.012497,362.441895 
	C211.805618,362.294983 212.644226,362.453430 213.738861,362.820221 
	C213.015915,362.934784 212.036942,362.841034 211.012497,362.441895 
z"/>
<path fill="#CCCCCC" opacity="1.000000" stroke="none" 
	d="
M339.931458,322.665894 
	C339.946594,322.110718 340.249512,321.663452 340.807983,321.113953 
	C340.782074,321.599091 340.500641,322.186432 339.931458,322.665894 
z"/>
<path fill="#CCCCCC" opacity="1.000000" stroke="none" 
	d="
M216.943390,363.723206 
	C217.483566,363.497986 218.053207,363.538574 218.807495,363.810608 
	C218.319046,364.024353 217.645950,364.006683 216.943390,363.723206 
z"/>
<path fill="#F1F0F1" opacity="1.000000" stroke="none" 
	d="
M205.042709,212.800079 
	C206.307541,212.517441 207.572388,212.234787 209.122787,211.888336 
	C209.122787,207.313248 209.205734,202.843719 209.108612,198.378098 
	C208.654663,177.504623 225.166489,164.234131 243.789169,163.292603 
	C262.624603,162.340332 277.577332,176.403091 278.894562,195.972610 
	C279.249207,201.241226 278.948273,206.553955 278.948273,212.289627 
	C282.204529,212.289627 284.982147,212.207413 287.753540,212.303619 
	C300.839752,212.757935 308.329651,220.516174 308.300812,233.587723 
	C308.265930,249.400742 308.425232,265.219086 308.059570,281.024963 
	C307.768372,293.615448 299.526093,301.193054 286.889160,301.207397 
	C258.756653,301.239319 230.623901,301.286957 202.491791,301.182617 
	C199.064590,301.169891 195.640717,300.263885 192.321350,299.299805 
	C194.167374,298.792480 195.907227,298.736023 197.647354,298.726532 
	C200.700699,298.709808 203.754181,298.721863 206.807617,298.721863 
	C206.940155,298.050995 207.072693,297.380127 207.205231,296.709259 
	C204.133591,294.980713 201.061966,293.252197 198.438538,291.471741 
	C228.042618,291.561127 257.198425,291.743042 286.354492,291.818359 
	C294.757843,291.840088 298.778198,287.801849 298.762390,279.812592 
	C298.733063,264.980713 298.671173,250.148819 298.685089,235.316986 
	C298.693939,225.880157 295.231873,222.276703 285.922974,222.267151 
	C266.091614,222.246826 246.259689,222.140091 226.429138,222.260162 
	C215.959167,222.323563 205.491638,222.789001 195.013367,222.637878 
	C195.003052,220.462173 195.002350,218.721527 195.183502,216.660461 
	C198.591141,215.160034 201.816925,213.980057 205.042709,212.800079 
M249.724152,173.253448 
	C233.389191,170.634552 223.546082,179.181290 220.065018,190.182938 
	C217.957123,196.844742 219.676788,204.717651 219.676788,212.072906 
	C236.070236,212.072906 252.294144,212.072906 268.448975,212.072906 
	C270.816406,189.569153 266.203217,179.821259 249.724152,173.253448 
z"/>
<path fill="#FCFAFB" opacity="1.000000" stroke="none" 
	d="
M197.990341,291.523682 
	C201.061966,293.252197 204.133591,294.980713 207.205231,296.709259 
	C207.072693,297.380127 206.940155,298.050995 206.807617,298.721863 
	C203.754181,298.721863 200.700699,298.709808 197.647354,298.726532 
	C195.907227,298.736023 194.167374,298.792480 192.053940,299.002869 
	C186.069321,297.466248 182.683578,293.651611 181.617432,287.550323 
	C181.699890,281.978210 181.087952,276.920349 181.032761,271.856445 
	C180.895309,259.244232 181.011307,246.629288 181.365326,233.945496 
	C183.656464,232.222351 183.676331,230.881363 181.082291,229.647675 
	C181.141937,228.911636 181.192169,228.492325 181.554901,227.977112 
	C184.234894,225.243652 186.602417,222.606094 189.039780,219.614349 
	C191.073639,218.500427 193.037643,217.740662 195.001648,216.980896 
	C195.002350,218.721527 195.003052,220.462173 194.828842,222.899963 
	C193.403076,224.729630 192.152206,225.862152 190.619675,227.026398 
	C190.210312,227.701218 190.082611,228.344315 189.943329,229.457153 
	C189.996536,248.512695 190.061325,267.098480 190.088715,286.077942 
	C190.802933,287.224335 191.554550,287.977081 192.217316,288.824097 
	C192.128448,288.918427 192.262909,288.696869 192.214493,289.038635 
	C193.120331,289.890137 194.074570,290.399872 195.410172,290.922577 
	C196.524460,291.131561 197.257401,291.327606 197.990341,291.523682 
z"/>
<path fill="#E3E3E3" opacity="1.000000" stroke="none" 
	d="
M181.025558,234.015442 
	C181.011307,246.629288 180.895309,259.244232 181.032761,271.856445 
	C181.087952,276.920349 181.699890,281.978210 181.967987,287.322998 
	C181.198090,286.594513 179.924332,285.580231 179.927155,284.569519 
	C179.980667,265.508911 180.185211,246.448730 180.719788,227.418304 
	C181.135040,227.656448 181.188721,227.864731 181.242416,228.073029 
	C181.192169,228.492325 181.141937,228.911636 181.056335,230.052795 
	C181.022507,231.854919 181.024033,232.935181 181.025558,234.015442 
z"/>
<path fill="#E3E3E3" opacity="1.000000" stroke="none" 
	d="
M195.183502,216.660461 
	C193.037643,217.740662 191.073639,218.500427 188.601776,219.620941 
	C186.936340,219.852341 185.778717,219.722961 184.621109,219.593582 
	C189.891159,213.756134 196.668823,212.089828 204.622742,212.658051 
	C201.816925,213.980057 198.591141,215.160034 195.183502,216.660461 
z"/>
<path fill="#F1F0F1" opacity="1.000000" stroke="none" 
	d="
M184.621506,219.605179 
	C185.778717,219.722961 186.936340,219.852341 188.531952,219.975128 
	C186.602417,222.606094 184.234894,225.243652 181.554901,227.977112 
	C181.188721,227.864731 181.135040,227.656448 180.999268,227.136108 
	C181.392578,225.317551 181.867966,223.811020 182.998199,222.098801 
	C183.968903,221.135132 184.284760,220.377151 184.600616,219.619156 
	C184.600601,219.619156 184.621902,219.616776 184.621506,219.605179 
z"/>
<path fill="#E3E3E3" opacity="1.000000" stroke="none" 
	d="
M184.334351,219.761398 
	C184.284760,220.377151 183.968903,221.135132 183.299057,221.935867 
	C183.319412,221.286957 183.693756,220.595306 184.334351,219.761398 
z"/>
<path fill="#050405" opacity="1.000000" stroke="none" 
	d="
M190.901337,226.994659 
	C192.152206,225.862152 193.403076,224.729630 194.838470,223.335022 
	C205.491638,222.789001 215.959167,222.323563 226.429138,222.260162 
	C246.259689,222.140091 266.091614,222.246826 285.922974,222.267151 
	C295.231873,222.276703 298.693939,225.880157 298.685089,235.316986 
	C298.671173,250.148819 298.733063,264.980713 298.762390,279.812592 
	C298.778198,287.801849 294.757843,291.840088 286.354492,291.818359 
	C257.198425,291.743042 228.042618,291.561127 198.438538,291.471710 
	C197.257401,291.327606 196.524460,291.131561 195.260406,290.658630 
	C193.907150,289.820160 193.085022,289.258514 192.262909,288.696869 
	C192.262909,288.696869 192.128448,288.918427 192.092575,288.532501 
	C191.413177,287.325806 190.769638,286.505035 190.126099,285.684265 
	C190.061325,267.098480 189.996536,248.512695 190.168304,229.273682 
	C190.570374,228.078537 190.735855,227.536591 190.901337,226.994659 
M234.296768,235.782654 
	C233.621658,236.533157 232.946548,237.283661 231.918579,238.305481 
	C231.918579,238.305481 231.866211,238.747498 231.278397,239.155579 
	C230.738647,240.720779 230.198898,242.285980 229.232193,244.498993 
	C228.738174,249.336121 229.152069,254.567200 233.476151,256.978302 
	C239.385483,260.273315 239.258621,265.008942 238.953491,270.336945 
	C238.839645,272.324768 238.908936,274.326508 238.965866,276.319855 
	C239.059113,279.585571 240.511688,281.911926 244.000565,281.814972 
	C247.357513,281.721649 248.969910,279.500916 249.017838,276.212677 
	C249.071152,272.556183 249.138275,268.895233 249.015762,265.242371 
	C248.926041,262.566864 249.618896,260.944397 252.204346,259.345825 
	C259.572784,254.790009 261.068909,244.897476 255.943329,237.940308 
	C250.941254,231.150757 241.789734,230.155304 234.296768,235.782654 
z"/>
<path fill="#070606" opacity="1.000000" stroke="none" 
	d="
M250.127701,173.367676 
	C266.203217,179.821259 270.816406,189.569153 268.448975,212.072906 
	C252.294144,212.072906 236.070236,212.072906 219.676788,212.072906 
	C219.676788,204.717651 217.957123,196.844742 220.065018,190.182938 
	C223.546082,179.181290 233.389191,170.634552 250.127701,173.367676 
z"/>
<path fill="#F1F0F1" opacity="1.000000" stroke="none" 
	d="
M181.365326,233.945496 
	C181.024033,232.935181 181.022507,231.854919 181.046936,230.369537 
	C183.676331,230.881363 183.656464,232.222351 181.365326,233.945496 
z"/>
<path fill="#F1F0F1" opacity="1.000000" stroke="none" 
	d="
M192.214493,289.038635 
	C193.085022,289.258514 193.907150,289.820160 194.879059,290.645691 
	C194.074570,290.399872 193.120331,289.890137 192.214493,289.038635 
z"/>
<path fill="#F1F0F1" opacity="1.000000" stroke="none" 
	d="
M190.088715,286.077942 
	C190.769638,286.505035 191.413177,287.325806 192.181427,288.438171 
	C191.554550,287.977081 190.802933,287.224335 190.088715,286.077942 
z"/>
<path fill="#F1F0F1" opacity="1.000000" stroke="none" 
	d="
M190.619675,227.026398 
	C190.735855,227.536591 190.570374,228.078537 190.179901,228.803940 
	C190.082611,228.344315 190.210312,227.701218 190.619675,227.026398 
z"/>
<path fill="#F6F6F6" opacity="1.000000" stroke="none" 
	d="
M231.866196,238.747513 
	C231.866211,238.747498 231.918579,238.305481 232.450317,238.166046 
	C233.624268,237.235138 234.266510,236.443695 234.908737,235.652237 
	C241.789734,230.155304 250.941254,231.150757 255.943329,237.940308 
	C261.068909,244.897476 259.572784,254.790009 252.204346,259.345825 
	C249.618896,260.944397 248.926041,262.566864 249.015762,265.242371 
	C249.138275,268.895233 249.071152,272.556183 249.017838,276.212677 
	C248.969910,279.500916 247.357513,281.721649 244.000565,281.814972 
	C240.511688,281.911926 239.059113,279.585571 238.965866,276.319855 
	C238.908936,274.326508 238.839645,272.324768 238.953491,270.336945 
	C239.258621,265.008942 239.385483,260.273315 233.476151,256.978302 
	C229.152069,254.567200 228.738174,249.336121 229.844696,244.212067 
	C231.929169,243.530334 233.401108,243.135559 234.873062,242.740768 
	C235.046417,242.205826 235.219788,241.670883 235.393143,241.135941 
	C234.217484,240.339798 233.041840,239.543655 231.866196,238.747513 
z"/>
<path fill="#E1E0E0" opacity="1.000000" stroke="none" 
	d="
M231.572296,238.951553 
	C233.041840,239.543655 234.217484,240.339798 235.393143,241.135941 
	C235.219788,241.670883 235.046417,242.205826 234.873062,242.740768 
	C233.401108,243.135559 231.929169,243.530334 230.058167,243.888153 
	C230.198898,242.285980 230.738647,240.720779 231.572296,238.951553 
z"/>
<path fill="#E1E0E0" opacity="1.000000" stroke="none" 
	d="
M234.602753,235.717438 
	C234.266510,236.443695 233.624268,237.235138 232.626740,238.030396 
	C232.946548,237.283661 233.621658,236.533157 234.602753,235.717438 
z"/>
</svg>